<svg xmlns="http://www.w3.org/2000/svg" xmlns:xlink="http://www.w3.org/1999/xlink" version="1.1" id="Calque_1" x="0px" y="0px" width="256px" height="256px" viewBox="0 0 256 256" enable-background="new 0 0 256 256" xml:space="preserve">
<g>
  <path d="M23.5,146l9.833,42.668l68.833,10.166l21.5,21.167h95.833l5.001-35.667l-24.333-4.5v-6.833h-10.334V164H201   c0,0-4.834-15.5-24.5-16.333v-6.499h-24.334v5.833h-25v17.667h10.333v4.333h-13.833L9.083,53.084L34.5,27.667L29.833,23   L7.291,44.208V28.5H0v26L91.333,146H23.5z"/>
  <circle fill="#FFFFFF" cx="103" cy="203.168" r="29.167"/>
  <path d="M103,187c8.915,0,16.167,7.254,16.167,16.168c0,8.913-7.252,16.166-16.167,16.166c-8.914,0-16.167-7.253-16.167-16.166   C86.833,194.254,94.086,187,103,187 M103,179.001c-13.346,0-24.167,10.82-24.167,24.167c0,13.346,10.821,24.166,24.167,24.166   c13.347,0,24.167-10.82,24.167-24.166C127.167,189.821,116.346,179.001,103,179.001L103,179.001z"/>
  <circle fill="#FFFFFF" cx="230.917" cy="207.251" r="25.083"/>
  <path d="M230.917,193.347c7.667,0,13.903,6.238,13.903,13.904c0,7.667-6.236,13.903-13.903,13.903   c-7.666,0-13.904-6.236-13.904-13.903C217.013,199.585,223.251,193.347,230.917,193.347 M230.917,186.467   c-11.479,0-20.785,9.306-20.785,20.784c0,11.478,9.307,20.784,20.785,20.784c11.478,0,20.784-9.307,20.784-20.784   C251.701,195.772,242.395,186.467,230.917,186.467L230.917,186.467z"/>
</g>
</svg>
